<mxfile host="app.diagrams.net" modified="2023-11-07T14:28:02.401Z" agent="Mozilla/5.0 (Macintosh; Intel Mac OS X 10_15_7) AppleWebKit/537.36 (KHTML, like Gecko) Chrome/119.0.0.0 Safari/537.36" version="22.0.8" etag="PWb3OmlO8SMo_O2-WgB4" type="github">
  <diagram name="Trang-1" id="LE5ST5JqmTWKM6O9tlin">
    <mxGraphModel>
      <root>
        <mxCell id="0" />
        <mxCell id="1" parent="0" />
      </root>
    </mxGraphModel>
  </diagram>
</mxfile>
